<svg id="Layer_3" enable-background="new 0 0 64 64" height="512" viewBox="0 0 64 64" width="512" xmlns="http://www.w3.org/2000/svg"><g><path d="m62 35h-1v-19c0-4.963-4.038-9-9-9s-9 4.037-9 9v1.685c-2.361 1.126-4 3.53-4 6.315 0 .553.448 1 1 1h12c.552 0 1-.447 1-1 0-2.785-1.639-5.188-4-6.315v-1.685c0-1.654 1.346-3 3-3s3 1.346 3 3v19h-15.112c.067-.328.112-.662.112-1 0-2.69-2.136-4.892-4.802-4.996-1.062-1.846-3.032-3.004-5.198-3.004-1.586 0-3.067.617-4.183 1.718-1.06-.574-2.225-.835-3.471-.676-1.137-2.45-3.586-4.042-6.346-4.042-2.722 0-5.177 1.583-6.323 4.009-3.159.168-5.677 2.791-5.677 5.991 0 .693.123 1.364.348 2h-2.348c-.552 0-1 .447-1 1v4c0 .553.448 1 1 1h1v10c0 4.411 3.589 8 8 8v3c0 .553.448 1 1 1h6c.552 0 1-.447 1-1v-3h26v3c0 .553.448 1 1 1h6c.552 0 1-.447 1-1v-3c4.411 0 8-3.589 8-8v-10h1c.552 0 1-.447 1-1v-4c0-.553-.448-1-1-1zm-11.101-12h-9.799c.464-2.279 2.485-4 4.899-4s4.436 1.721 4.9 4zm1.101-12c-2.757 0-5 2.243-5 5v1.08c-.328-.047-.66-.08-1-.08s-.672.033-1 .08v-1.08c0-3.859 3.14-7 7-7s7 3.141 7 7v19h-2v-19c0-2.757-2.243-5-5-5zm-46 22c0-2.2 1.786-3.991 4.043-3.991h.016c.069.01.138.019.208.023.456.018.865-.244 1.014-.67.698-2.01 2.595-3.362 4.719-3.362 2.189 0 4.104 1.402 4.766 3.488.161.51.691.799 1.21.665.393-.104.718-.153 1.024-.153.858 0 1.688.284 2.399.822.213.16.482.232.744.192.264-.038.501-.179.661-.393.769-1.029 1.934-1.621 3.196-1.621 1.605 0 3.05.955 3.68 2.433.171.4.582.656 1.014.603l.178-.021c.043-.006.084-.015.128-.015 1.654 0 3 1.346 3 3 0 .346-.08.679-.194 1h-31.26c-.352-.606-.546-1.286-.546-2zm11 28h-4v-2h4zm34 0h-4v-2h4zm8-10c0 3.309-2.691 6-6 6h-42c-3.309 0-6-2.691-6-6v-10h54zm2-12h-58v-2h58z"/><path d="m4 11c1.302 0 2.402-.839 2.816-2h2.184v9c0 .553.448 1 1 1h15c.552 0 1-.447 1-1v-9h2.184c.414 1.161 1.514 2 2.816 2 1.654 0 3-1.346 3-3v-4c0-1.654-1.346-3-3-3-1.302 0-2.402.839-2.816 2h-21.368c-.414-1.161-1.514-2-2.816-2-1.654 0-3 1.346-3 3v4c0 1.654 1.346 3 3 3zm3-4v-2h2v2zm4-2h13v8h-13zm0 12v-2h13v2zm15-12h2v2h-2zm4-1c0-.552.449-1 1-1s1 .448 1 1v4c0 .552-.449 1-1 1s-1-.448-1-1zm-27 0c0-.552.449-1 1-1s1 .448 1 1v4c0 .552-.449 1-1 1s-1-.448-1-1z"/></g></svg>