<svg id="power" xmlns="http://www.w3.org/2000/svg" width="133.766" height="80.859" viewBox="0 0 133.766 80.859">
  <path id="power-2" data-name="power" d="M88.379,125.233V121.6a1.289,1.289,0,0,0-1.289-1.289H85.924L86.49,44.4a17.66,17.66,0,1,0-35.32,0V71.625a15.082,15.082,0,1,1-30.165,0V46.812a4.033,4.033,0,0,0,2.915-3.868v-.359H25.8a1.289,1.289,0,0,0,1.282-1.156l1.144-11.112h1.2a1.289,1.289,0,0,0,1.289-1.289V23.736a1.289,1.289,0,0,0-1.289-1.289H27.7V15a3.176,3.176,0,0,0-6.352,0v7.453H18.09V15a3.176,3.176,0,0,0-6.352,0v7.453H10a1.289,1.289,0,0,0-1.289,1.289V29.03A1.289,1.289,0,0,0,10,30.319h1.2L12.349,41.43a1.289,1.289,0,0,0,1.282,1.156h1.882v.359a4.033,4.033,0,0,0,2.912,3.867V71.625a17.66,17.66,0,1,0,35.32,0V44.4a15.083,15.083,0,1,1,30.165,0l-.566,75.914H82.178a1.289,1.289,0,0,0-1.289,1.289v3.633a1.284,1.284,0,0,0-1.2,1.279v8.705a1.289,1.289,0,0,0,1.289,1.289h.351v5.777a3.3,3.3,0,1,0,6.6,0v-5.777h.351a1.289,1.289,0,0,0,1.289-1.289v-8.705A1.284,1.284,0,0,0,88.379,125.233ZM23.919,15a.6.6,0,1,1,1.2,0v7.453h-1.2Zm-9.606,0a.6.6,0,1,1,1.2,0v7.453h-1.2Zm-3.019,10.03H28.14v2.714H11.293Zm2.5,5.293h11.84l-1,9.691H14.794Zm4.295,12.268h3.254v.359A1.453,1.453,0,0,1,19.895,44.4h-.351a1.453,1.453,0,0,1-1.451-1.451ZM87,133.929H82.271v-1.775H87Zm-3.53-11.04H85.8v2.335H83.466Zm-1.2,6.687V127.8H87v1.775Zm3.086,12.707a.724.724,0,0,1-1.448,0v-5.776h1.448Z" transform="translate(145.585 -8.716) rotate(90)" fill="#002e59"/>
</svg>
