<svg xmlns="http://www.w3.org/2000/svg" width="133.766" height="80.859" viewBox="0 0 133.766 80.859">
  <path id="power" d="M79.663,20.352v3.633a1.289,1.289,0,0,1-1.289,1.289H77.208l.566,75.914a17.66,17.66,0,1,1-35.32,0V73.96a15.082,15.082,0,1,0-30.165,0V98.773a4.033,4.033,0,0,1,2.915,3.868V103h1.882a1.289,1.289,0,0,1,1.282,1.156l1.144,11.112h1.2A1.289,1.289,0,0,1,22,116.557v5.291a1.289,1.289,0,0,1-1.289,1.289H18.98v7.453a3.176,3.176,0,0,1-6.352,0v-7.453H9.374v7.453a3.176,3.176,0,0,1-6.352,0v-7.453H1.289A1.289,1.289,0,0,1,0,121.848v-5.293a1.289,1.289,0,0,1,1.289-1.289h1.2l1.144-11.112A1.289,1.289,0,0,1,4.915,103H6.8v-.359a4.033,4.033,0,0,1,2.912-3.867V73.96a17.66,17.66,0,1,1,35.319,0v27.228a15.083,15.083,0,1,0,30.165,0l-.566-75.914H73.462a1.289,1.289,0,0,1-1.289-1.289V20.352a1.284,1.284,0,0,1-1.2-1.279V10.367a1.289,1.289,0,0,1,1.289-1.289h.351V3.3a3.3,3.3,0,1,1,6.6,0V9.079h.351a1.289,1.289,0,0,1,1.289,1.289v8.705A1.284,1.284,0,0,1,79.663,20.352ZM15.2,130.59a.6.6,0,0,0,1.2,0v-7.453H15.2Zm-9.606,0a.6.6,0,0,0,1.2,0v-7.453H5.6ZM2.578,120.56H19.424v-2.714H2.577Zm2.5-5.293h11.84l-1-9.691H6.078ZM9.377,103H12.63v-.359a1.453,1.453,0,0,0-1.451-1.451h-.351a1.453,1.453,0,0,0-1.451,1.451Zm68.9-91.342H73.555v1.775h4.726ZM74.75,22.7h2.335V20.361H74.75Zm-1.2-6.687v1.775h4.726V16.009ZM76.642,3.3a.724.724,0,0,0-1.448,0V9.079h1.448Z" transform="translate(133.766) rotate(90)" fill="#002e59"/>
</svg>
